<svg width="256" height="256" viewBox="0 0 256 256" fill="none" xmlns="http://www.w3.org/2000/svg">
<g clip-path="url(#clip0_1_2)">
<g clip-path="url(#clip1_1_2)">
<path opacity="0.6" d="M129.865 38.4912L145.814 44.5398L146.026 44.6272C146.51 44.8461 146.942 45.1678 147.291 45.5707C147.69 46.0312 147.969 46.5838 148.102 47.1785C148.106 47.197 148.109 47.2159 148.114 47.2343L149.555 53.3518C150.059 55.5635 151.105 57.6158 152.599 59.3232C154.095 61.0326 155.994 62.3407 158.123 63.1329L158.122 63.1347L190.186 75.2945C191.099 75.6407 191.836 76.3351 192.237 77.2254C192.638 78.1156 192.668 79.1283 192.322 80.0411C192.294 80.1162 192.267 80.1923 192.242 80.2687L184.06 105.443C183.58 105.425 183.03 105.389 182.426 105.331C181.191 105.211 179.95 105.027 179 104.87C178.53 104.792 178.142 104.722 177.876 104.672C177.743 104.648 177.64 104.628 177.574 104.615C177.541 104.609 177.516 104.604 177.502 104.602C177.494 104.6 177.49 104.599 177.487 104.598C176.463 104.392 175.4 104.511 174.448 104.94C174.276 105.017 174.121 105.092 173.981 105.16C173.854 105.144 173.701 105.128 173.519 105.103C172.674 104.985 171.623 104.824 169.913 104.579C169.845 104.541 169.474 104.366 168.751 103.822C167.756 103.073 166.517 101.952 165.078 100.492C162.213 97.5823 158.933 93.7085 155.785 89.7588C152.655 85.8302 149.73 81.92 147.582 78.985C146.51 77.5197 145.636 76.3023 145.031 75.4534C144.729 75.0293 144.494 74.6976 144.336 74.4731C144.256 74.3609 144.196 74.2748 144.156 74.2183C144.137 74.1901 144.122 74.1692 144.112 74.1556C144.108 74.1487 144.103 74.144 144.101 74.1409L144.1 74.1371C143.949 73.9215 143.782 73.7177 143.599 73.5286L143.411 73.3444L128.407 59.344C127.957 58.9235 127.432 58.5911 126.86 58.3614C126.84 58.3459 126.702 58.2598 126.335 58.0044C125.921 57.7167 124.883 56.9658 123.58 56.5136C122.373 56.0952 121.024 55.9453 119.6 56.2105L125.128 40.5989C125.478 39.6994 126.168 38.9726 127.049 38.5761C127.939 38.1754 128.952 38.145 129.865 38.4912Z" stroke="#1976DA" stroke-width="10" stroke-linecap="round" stroke-linejoin="round"/>
</g>
<g clip-path="url(#clip2_1_2)">
<path opacity="0.6" d="M168.437 38.4912L184.386 44.5398L184.597 44.6272C185.082 44.8461 185.513 45.1678 185.863 45.5707C186.262 46.0312 186.54 46.5838 186.673 47.1785C186.677 47.197 186.681 47.2159 186.686 47.2343L188.127 53.3518C188.631 55.5635 189.676 57.6158 191.171 59.3232C192.667 61.0326 194.566 62.3407 196.694 63.1329L196.694 63.1347L228.757 75.2945C229.67 75.6407 230.408 76.3351 230.809 77.2254C231.209 78.1156 231.24 79.1283 230.894 80.0411L215.557 120.483C214.921 119.543 214.11 118.314 213.382 117.343C212.973 116.798 212.48 116.182 211.932 115.629C211.465 115.158 210.558 114.312 209.273 113.825C209.267 113.822 209.261 113.82 209.255 113.818L187.915 105.818C187.424 105.634 186.907 105.528 186.384 105.505L186.16 105.5L165.314 105.5C165.021 103.527 164.307 101.653 163.615 100.142C162.763 98.2831 161.742 96.5392 160.94 95.2192C160.388 94.3107 160.316 94.2075 159.907 93.5334C159.591 93.0115 159.532 92.8863 159.56 92.9484C159.562 92.9529 159.532 92.8858 159.458 92.6905C159.388 92.5064 159.304 92.277 159.196 91.9844C158.987 91.4152 158.712 90.6612 158.39 89.8289C157.751 88.1785 156.874 86.0727 155.773 84.0783C154.728 82.1838 153.215 79.8914 151.122 78.3174C150.967 78.2009 150.805 78.0872 150.638 77.975L163.699 40.6008C164.049 39.7003 164.739 38.9729 165.62 38.5761C166.511 38.1754 167.524 38.145 168.437 38.4912Z" stroke="#27882E" stroke-width="10" stroke-linecap="round" stroke-linejoin="round"/>
</g>
<path d="M180.833 196.333H93C79.5859 196.33 66.437 192.596 55.0227 185.55C43.6083 178.504 34.3782 168.422 28.3637 156.432C22.3492 144.442 19.7872 131.016 20.9642 117.653C22.1411 104.291 27.0106 91.5193 35.0284 80.7651C43.0462 70.011 53.8966 61.6982 66.3669 56.7557C78.8372 51.8132 92.4363 50.4357 105.644 52.7771C118.853 55.1186 131.149 61.0867 141.161 70.0146C151.172 78.9425 158.504 90.4784 162.337 103.333H180.833C193.166 103.333 204.993 108.232 213.714 116.953C222.434 125.673 227.333 137.501 227.333 149.833C227.333 162.166 222.434 173.993 213.714 182.714C204.993 191.434 193.166 196.333 180.833 196.333Z" stroke="black" stroke-width="15" stroke-linecap="round" stroke-linejoin="round"/>
<path d="M142 213.583C141.148 213.586 140.314 213.345 139.592 212.888C138.871 212.431 138.293 211.777 137.925 211.002C137.558 210.227 137.416 209.362 137.516 208.509C137.616 207.655 137.954 206.848 138.49 206.18L183.04 159.855C183.374 159.466 183.83 159.203 184.331 159.109C184.833 159.016 185.352 159.097 185.802 159.34C186.252 159.583 186.607 159.973 186.808 160.446C187.009 160.92 187.045 161.448 186.91 161.945L178.27 189.285C178.015 189.974 177.93 190.714 178.021 191.443C178.112 192.172 178.376 192.867 178.792 193.47C179.208 194.073 179.763 194.565 180.409 194.904C181.054 195.243 181.772 195.419 182.5 195.417H214C214.852 195.414 215.686 195.655 216.408 196.112C217.129 196.569 217.707 197.223 218.075 197.998C218.442 198.773 218.584 199.638 218.484 200.491C218.384 201.345 218.046 202.152 217.51 202.82L172.96 249.145C172.626 249.534 172.17 249.797 171.669 249.891C171.167 249.984 170.648 249.903 170.198 249.66C169.748 249.417 169.393 249.027 169.192 248.554C168.991 248.08 168.955 247.552 169.09 247.055L177.73 219.715C177.985 219.026 178.07 218.286 177.979 217.557C177.888 216.828 177.624 216.133 177.208 215.53C176.792 214.927 176.237 214.435 175.591 214.096C174.945 213.757 174.228 213.581 173.5 213.583H142Z" stroke="black" stroke-width="10" stroke-linecap="round" stroke-linejoin="round"/>
</g>
<defs>
<clipPath id="clip0_1_2">
<rect width="256" height="256" fill="white"/>
</clipPath>
<clipPath id="clip1_1_2">
<rect width="104.177" height="104.177" fill="white" transform="translate(120.021 15.4834) rotate(20.7686)"/>
</clipPath>
<clipPath id="clip2_1_2">
<rect width="104.177" height="104.177" fill="white" transform="translate(158.593 15.4834) rotate(20.7686)"/>
</clipPath>
</defs>
</svg>
